<svg width="10" height="32" viewBox="0 0 10 32" fill="none" xmlns="http://www.w3.org/2000/svg">
<g clip-path="url(#clip0)">
<path fill-rule="evenodd" clip-rule="evenodd" d="M1 4H9C9.55229 4 10 4.44771 10 5V32H9V5.5C9 5.22386 8.77614 5 8.5 5H1V4Z" fill="#2C2F30"/>
<path d="M4.75602 8.93304C4.91465 8.77235 4.91468 8.51177 4.756 8.35106L0.980769 4.52688L4.75602 0.702516C4.91465 0.541829 4.91468 0.281251 4.756 0.120536C4.59734 -0.0401787 4.34013 -0.0401787 4.18148 0.120536L0.118977 4.23591C0.0427917 4.31308 -1.93106e-07 4.41775 -1.97876e-07 4.52688C-2.02647e-07 4.63602 0.0428183 4.74071 0.119004 4.81786L4.1815 8.93301C4.34013 9.09375 4.59737 9.09375 4.75602 8.93304Z" fill="#2C2F30"/>
</g>
<defs>
<clipPath id="clip0">
<rect width="10" height="32" fill="white"/>
</clipPath>
</defs>
</svg>
