<svg width="14" height="40" viewBox="0 0 14 40" fill="none" xmlns="http://www.w3.org/2000/svg">
<g clip-path="url(#clip0)">
<path fill-rule="evenodd" clip-rule="evenodd" d="M0.636452 5.3496L13 5.34996C13.5523 5.34998 14 5.79769 14 6.34996V40H12.7V7.14997C12.7 6.87384 12.4761 6.64998 12.2 6.64997L0.636452 6.6496V5.3496Z" fill="#2C2F30"/>
<path d="M6.34136 11.9107C6.55287 11.6965 6.5529 11.349 6.34133 11.1347L1.30769 6.03584L6.34136 0.936688C6.55287 0.722439 6.5529 0.375001 6.34133 0.160715C6.12979 -0.0535715 5.78684 -0.0535716 5.5753 0.160715L0.158637 5.64787C0.057056 5.75077 6.36069e-09 5.89033 0 6.03584C-6.36069e-09 6.18136 0.0570918 6.32095 0.158672 6.42381L5.57534 11.9107C5.78684 12.125 6.12982 12.125 6.34136 11.9107Z" fill="#2C2F30"/>
</g>
<defs>
<clipPath id="clip0">
<rect width="14" height="40" fill="white"/>
</clipPath>
</defs>
</svg>
