<svg width="12" height="12" viewBox="0 0 12 12" fill="none" xmlns="http://www.w3.org/2000/svg">
<path d="M1.01077 11.0714C1.24018 11.3027 1.61204 11.3027 1.84085 11.0714L10.0676 2.77863L10.0676 10.7385C10.0676 11.0675 10.3325 11.3344 10.6588 11.3344C10.9852 11.3344 11.25 11.0674 11.25 10.7385L11.25 1.34594C11.25 1.18801 11.1891 1.03544 11.0779 0.923432C10.9668 0.811427 10.8155 0.75 10.6588 0.75L1.34119 0.75C1.01483 0.75 0.75 1.01701 0.75 1.34594C0.75 1.67487 1.01488 1.94188 1.34119 1.94188H9.23752L1.01077 10.2347C0.781373 10.4659 0.781373 10.8408 1.01077 11.0714Z" fill="#FF543E"/>
</svg>
