<svg width="23" height="29" viewBox="0 0 23 29" fill="none" xmlns="http://www.w3.org/2000/svg">
<path d="M21.1644 5.32982V4.94323H22.9077V0H0V4.94323H1.74325V5.32982C1.74325 8.94045 4.1825 12.1896 7.95756 13.6075L9.19875 14.0737L7.95756 14.5399C4.1825 15.9579 1.74325 19.207 1.74325 22.8176V23.2042H0V28.1475H22.9077V23.2042H21.1644V22.8176C21.1644 19.207 18.7252 15.9579 14.9502 14.5399L13.709 14.0737L14.9502 13.6075C18.7252 12.1896 21.1644 8.94045 21.1644 5.32982ZM1.87319 1.64767H21.0346V3.29556H1.87319V1.64767ZM19.2912 4.94323V5.32982C19.2912 6.24676 19.0984 7.13505 18.7404 7.95886H4.16725C3.80919 7.13505 3.61637 6.24676 3.61637 5.32982V4.94323H19.2912ZM21.0346 26.4998H1.87319V24.8519H21.0346V26.4998H21.0346ZM19.2912 22.8176V23.2042H3.61644V22.8176C3.61644 19.868 5.60919 17.2135 8.69319 16.0552L10.5173 15.3701V16.7305H12.3905V15.3701L14.2146 16.0552C17.2986 17.2136 19.2912 19.868 19.2912 22.8176ZM11.4539 13.1291L8.69319 12.0922C7.25012 11.5502 6.04612 10.6806 5.17331 9.60648H17.7345C16.8617 10.6806 15.6577 11.5502 14.2146 12.0922L11.4539 13.1291Z" fill="#FF543E"/>
<path d="M10.5171 18.4375H12.3903V20.0996H10.5171V18.4375Z" fill="#FF543E"/>
</svg>
