<svg width="173" height="138" viewBox="0 0 173 138" fill="none" xmlns="http://www.w3.org/2000/svg">
<path d="M103.306 61.7922L103.299 61.7838L103.292 61.7754C97.7554 55.2016 94.9762 47.2878 94.9762 37.9782C94.9762 27.2023 98.5961 18.3181 105.823 11.2498C113.054 4.42658 122.094 0.999996 133.014 0.999997C144.186 0.999998 153.345 4.42868 160.571 11.244C167.55 18.3089 171.052 27.1948 171.052 37.9782C171.052 47.0267 167.906 57.3864 161.509 69.082C161.509 69.0827 161.509 69.0834 161.508 69.0842L124.012 136.75L102.738 128.421L125.382 75.5983L125.872 74.4558L124.651 74.2222C124.303 74.1555 123.958 74.0853 123.615 74.0114C115.147 72.1828 108.395 68.1083 103.306 61.7922ZM9.32993 61.7922L9.3231 61.7837L9.31606 61.7754C3.77921 55.2016 1.00004 47.2878 1.00004 37.9782C1.00004 27.2021 4.62011 18.3177 11.847 11.2494C19.0784 4.42644 28.1176 0.999987 39.0379 0.999988C50.2096 0.999989 59.3687 4.42869 66.595 11.244C73.5742 18.3089 77.0758 27.1948 77.0758 37.9782C77.0758 47.0273 73.9295 57.3877 67.532 69.0841L30.4024 136.753L8.76396 128.415L31.4059 75.5983L31.8957 74.4558L30.6747 74.2221C30.3266 74.1555 29.9814 74.0853 29.6391 74.0113C21.1713 72.1828 14.4184 68.1082 9.32993 61.7922Z" stroke="#FF543E" stroke-width="2"/>
</svg>
