<svg width="16" height="17" viewBox="0 0 16 17" fill="none" xmlns="http://www.w3.org/2000/svg">
<path d="M0.39737 16.5722C0.746934 16.9217 1.31359 16.9217 1.66225 16.5722L14.1982 4.03632L14.1983 16.0689C14.1983 16.5662 14.6019 16.9697 15.0991 16.9697C15.5964 16.9697 16 16.5661 16 16.0689L16 1.87059C16 1.63185 15.9072 1.40121 15.7378 1.2319C15.5684 1.06258 15.3378 0.969727 15.0991 0.969727L0.900867 0.969727C0.403555 0.969727 0 1.37335 0 1.87059C0 2.36782 0.40363 2.77144 0.900867 2.77144H12.9334L0.39737 15.3073C0.0478066 15.6569 0.0478066 16.2235 0.39737 16.5722Z" fill="currentColor"/>
</svg>
