<svg width="59" height="94" viewBox="0 0 59 94" fill="none" xmlns="http://www.w3.org/2000/svg">
<path d="M57.9996 93.0015H3.5621V89.6265L34.6246 53.814C39.7079 47.8556 43.4788 42.564 45.9371 37.939C48.4371 33.314 49.6871 29.064 49.6871 25.189C49.6871 18.5223 47.7496 13.3556 43.8746 9.68896C39.9996 5.98063 34.5413 4.12646 27.4996 4.12646C23.2496 4.12646 19.3746 5.1473 15.8746 7.18896C12.3746 9.23063 9.6246 12.064 7.6246 15.689C5.66627 19.2723 4.6871 23.2723 4.6871 27.689H1.3121C1.3121 22.814 2.4371 18.2931 4.6871 14.1265C6.9371 9.9598 10.0621 6.68896 14.0621 4.31396C18.0621 1.93896 22.5413 0.751465 27.4996 0.751465C35.5829 0.751465 41.8746 2.8973 46.3746 7.18896C50.8746 11.4806 53.1246 17.4806 53.1246 25.189C53.1246 32.2723 49.1454 40.7515 41.1871 50.6265L35.4996 57.564L7.9996 89.6265H57.9996V93.0015Z" fill="#FF543E"/>
<path fill-rule="evenodd" clip-rule="evenodd" d="M58.3996 93.4016H3.16211V89.4773L34.3203 53.5545L34.3214 53.5532C39.3936 47.6077 43.1443 42.3411 45.5839 37.7513L45.5852 37.7488C48.0644 33.1624 49.2871 28.9782 49.2871 25.1891C49.2871 18.6031 47.3758 13.5527 43.5997 9.97961L43.598 9.97806C39.8185 6.36105 34.4715 4.52656 27.4996 4.52656C23.3168 4.52656 19.5119 5.53036 16.0762 7.53457C12.6401 9.53893 9.94097 12.3189 7.97509 15.8818C6.05184 19.4014 5.08711 23.3342 5.08711 27.6891V28.0891H0.912109V27.6891C0.912109 22.7497 2.05267 18.1633 4.33515 13.9365C6.61891 9.70732 9.79446 6.38279 13.8579 3.97012C17.9238 1.556 22.4743 0.351562 27.4996 0.351562C35.6538 0.351562 42.056 2.51765 46.6507 6.8996C51.248 11.2841 53.5246 17.3993 53.5246 25.1891C53.5246 32.412 49.4739 40.9814 41.4986 50.8776L41.4965 50.8802L35.8033 57.8245L8.86967 89.2266H58.3996V93.4016ZM7.9996 89.6265L35.4996 57.564L41.1871 50.6265C49.1454 40.7515 53.1246 32.2723 53.1246 25.189C53.1246 17.4806 50.8746 11.4806 46.3746 7.18896C41.8746 2.8973 35.5829 0.751465 27.4996 0.751465C22.5413 0.751465 18.0621 1.93896 14.0621 4.31396C10.0621 6.68896 6.9371 9.9598 4.6871 14.1265C2.49876 18.1789 1.37462 22.5665 1.31464 27.2891C1.31295 27.4221 1.3121 27.5554 1.3121 27.689H4.6871C4.6871 23.2723 5.66627 19.2723 7.6246 15.689C9.6246 12.064 12.3746 9.23063 15.8746 7.18896C19.3746 5.1473 23.2496 4.12646 27.4996 4.12646C34.5413 4.12646 39.9996 5.98063 43.8746 9.68896C47.7496 13.3556 49.6871 18.5223 49.6871 25.189C49.6871 29.064 48.4371 33.314 45.9371 37.939C43.4788 42.564 39.7079 47.8556 34.6246 53.814L3.5621 89.6265V93.0015H57.9996V89.6265H7.9996Z" fill="#FF543E"/>
</svg>
