<svg width="138" height="111" viewBox="0 0 138 111" fill="none" xmlns="http://www.w3.org/2000/svg">
<path fill-rule="evenodd" clip-rule="evenodd" d="M110.266 48.4922H86.4623V45.4922H110.266V48.4922ZM59.1953 60.6519V57.6519H110.266V60.6519H59.1953ZM110.266 69.8117V72.8117H59.1953V69.8117H110.266Z" fill="#FF543E"/>
<path fill-rule="evenodd" clip-rule="evenodd" d="M61.6274 21.7402H34.876V18.7402H61.6274V21.7402ZM61.6274 32.684H34.876V29.684H61.6274V32.684Z" fill="#FF543E"/>
<path fill-rule="evenodd" clip-rule="evenodd" d="M43.3335 3.5C37.3292 3.5 31.5723 5.87296 27.3289 10.0944C23.0858 14.3156 20.7035 20.039 20.7035 26.0053V35.9832L8.11106 48.5105H23.5981V51.5105H0.841797L17.7035 34.736V26.0053C17.7035 19.2383 20.4057 12.7501 25.2131 7.96758C30.0203 3.18528 36.5385 0.5 43.3335 0.5H52.8999C59.6949 0.5 66.2132 3.18528 71.0203 7.96758C75.8277 12.7501 78.5299 19.2383 78.5299 26.0053C78.5299 29.3558 77.8666 32.6732 76.5779 35.7683C75.2893 38.8633 73.4007 41.6749 71.0203 44.043C68.64 46.411 65.8146 48.289 62.7056 49.5701C59.5966 50.8512 56.2646 51.5105 52.8999 51.5105H34.769V62.6056C34.769 69.5535 37.5433 76.2185 42.4842 81.1338C47.4253 86.0494 54.1285 88.8123 61.1197 88.8123H62.6197V102.966L76.9207 88.7387H107.951C111.413 88.7387 114.841 88.0603 118.038 86.7425C121.236 85.4246 124.141 83.4932 126.588 81.0589C129.035 78.6247 130.975 75.7352 132.298 72.5558C133.622 69.3764 134.302 65.9691 134.302 62.5281V47.2738C134.302 47.2736 134.302 47.274 134.302 47.2738C134.299 40.328 131.523 33.6655 126.583 28.7527C121.642 23.8395 114.94 21.0781 107.951 21.0781H85.653V18.0781H107.951C115.731 18.0781 123.194 21.1516 128.698 26.6254C134.203 32.0995 137.299 39.526 137.302 47.2725V62.5281C137.302 66.3648 136.543 70.1641 135.068 73.7086C133.592 77.2532 131.43 80.4734 128.704 83.1856C125.978 85.8978 122.742 88.0488 119.182 89.5162C115.621 90.9836 111.805 91.7387 107.951 91.7387H78.1588L59.6197 110.182V91.7742C52.384 91.406 45.5185 88.3841 40.3684 83.2606C34.8632 77.7839 31.769 70.3542 31.769 62.6056V48.5105H52.8999C55.8728 48.5105 58.8164 47.928 61.5626 46.7964C64.3087 45.6648 66.8035 44.0063 68.9045 41.9162C71.0055 39.826 72.6717 37.345 73.8084 34.6151C74.945 31.8852 75.5299 28.9596 75.5299 26.0053C75.5299 20.039 73.1476 14.3156 68.9045 10.0944C64.6611 5.87296 58.9043 3.5 52.8999 3.5H43.3335Z" fill="#FF543E"/>
</svg>
