<svg width="114" height="94" viewBox="0 0 114 94" fill="none" xmlns="http://www.w3.org/2000/svg">
<path d="M30.1871 93.0015H26.8121V6.25146L0.687103 16.064V12.3765L29.4996 1.75146H30.1871V93.0015Z" fill="#FF543E"/>
<path d="M112.885 93.0015H58.4471V89.6265L89.5096 53.814C94.5929 47.8556 98.3638 42.564 100.822 37.939C103.322 33.314 104.572 29.064 104.572 25.189C104.572 18.5223 102.635 13.3556 98.7596 9.68896C94.8846 5.98063 89.4263 4.12646 82.3846 4.12646C78.1346 4.12646 74.2596 5.1473 70.7596 7.18896C67.2596 9.23063 64.5096 12.064 62.5096 15.689C60.5513 19.2723 59.5721 23.2723 59.5721 27.689H56.1971C56.1971 22.814 57.3221 18.2931 59.5721 14.1265C61.8221 9.9598 64.9471 6.68896 68.9471 4.31396C72.9471 1.93896 77.4263 0.751465 82.3846 0.751465C90.4679 0.751465 96.7596 2.8973 101.26 7.18896C105.76 11.4806 108.01 17.4806 108.01 25.189C108.01 32.2723 104.03 40.7515 96.0721 50.6265L90.3846 57.564L62.8846 89.6265H112.885V93.0015Z" fill="#FF543E"/>
<path fill-rule="evenodd" clip-rule="evenodd" d="M30.5871 93.4016H26.4121V6.82909L0.287109 16.6416V12.0977L29.4282 1.35156H30.5871V93.4016ZM26.8121 6.25146V93.0015H30.1871V1.75146H29.4996L0.687103 12.3765V16.064L26.8121 6.25146ZM113.285 93.4016H58.0471V89.4773L89.2053 53.5545C89.2056 53.5541 89.2059 53.5538 89.2062 53.5534C94.2785 47.6079 98.0293 42.3411 100.469 37.7513L100.47 37.7488C102.949 33.1624 104.172 28.9782 104.172 25.1891C104.172 18.6031 102.261 13.5527 98.4847 9.97961L98.483 9.97806C94.7035 6.36105 89.3565 4.52656 82.3846 4.52656C78.2018 4.52656 74.3969 5.53036 70.9612 7.53457C67.5254 9.53875 64.8265 12.3184 62.8606 15.8809C60.937 19.4007 59.9721 23.3338 59.9721 27.6891V28.0891H55.7971V27.6891C55.7971 22.7497 56.9377 18.1633 59.2202 13.9365C61.5039 9.70732 64.6795 6.38279 68.7429 3.97012C72.8088 1.556 77.3593 0.351562 82.3846 0.351562C90.5388 0.351562 96.941 2.51765 101.536 6.8996C106.133 11.2841 108.41 17.3993 108.41 25.1891C108.41 32.412 104.359 40.9814 96.3836 50.8776L96.3815 50.8802L90.6883 57.8245L63.7547 89.2266H113.285V93.4016ZM62.8846 89.6265L90.3846 57.564L96.0721 50.6265C104.03 40.7515 108.01 32.2723 108.01 25.189C108.01 17.4806 105.76 11.4806 101.26 7.18896C96.7596 2.8973 90.4679 0.751465 82.3846 0.751465C77.4263 0.751465 72.9471 1.93896 68.9471 4.31396C64.9471 6.68896 61.8221 9.9598 59.5721 14.1265C57.3838 18.1789 56.2596 22.5665 56.1996 27.2891C56.198 27.4221 56.1971 27.5554 56.1971 27.689H59.5721C59.5721 23.2723 60.5513 19.2723 62.5096 15.689C64.5096 12.064 67.2596 9.23063 70.7596 7.18896C74.2596 5.1473 78.1346 4.12646 82.3846 4.12646C89.4263 4.12646 94.8846 5.98063 98.7596 9.68896C102.635 13.3556 104.572 18.5223 104.572 25.189C104.572 29.064 103.322 33.314 100.822 37.939C98.3638 42.564 94.5929 47.8556 89.5096 53.814L58.4471 89.6265V93.0015H112.885V89.6265H62.8846Z" fill="#FF543E"/>
</svg>
