<svg width="112" height="98" viewBox="0 0 112 98" fill="none" xmlns="http://www.w3.org/2000/svg">
<path fill-rule="evenodd" clip-rule="evenodd" d="M81.3026 0.382812H98.2772C101.57 0.382812 104.883 1.34418 107.387 3.65404C109.916 5.98643 111.44 9.52756 111.44 14.3154V71.3025H108.44V14.3154C108.44 10.1899 107.148 7.51475 105.353 5.85918C103.534 4.18108 101.016 3.38281 98.2772 3.38281H84.3026V74.445H100.254L100.322 74.4513L100.185 75.945C100.322 74.4513 100.323 74.4513 100.324 74.4514L100.326 74.4515L100.33 74.4519L100.34 74.453L100.372 74.4562C100.398 74.459 100.433 74.4629 100.476 74.4682C100.563 74.4788 100.683 74.4949 100.834 74.5185C101.133 74.5655 101.553 74.6424 102.052 74.7641C103.045 75.0059 104.387 75.4322 105.744 76.1744C108.502 77.6827 111.363 80.5443 111.363 85.6421C111.363 90.7699 108.296 93.7774 105.428 95.4257C104 96.2463 102.586 96.7565 101.537 97.062C101.01 97.2156 100.568 97.3196 100.252 97.3859C100.094 97.4192 99.9676 97.4431 99.8773 97.4592C99.8322 97.4672 99.7961 97.4733 99.7697 97.4776L99.7374 97.4828L99.7268 97.4844L99.723 97.485L99.7214 97.4852C99.7207 97.4853 99.7201 97.4854 99.498 96.002L99.7201 97.4854L99.6097 97.502H0.978516V15.2478H72.5509V18.2478H3.97852V94.502H99.3718C99.4334 94.4908 99.5221 94.4739 99.6346 94.4502C99.8859 94.3973 100.253 94.3113 100.698 94.1818C101.593 93.9211 102.77 93.4929 103.933 92.8246C106.247 91.495 108.363 89.3227 108.363 85.6421C108.363 81.9318 106.385 79.9447 104.304 78.8065C103.242 78.2254 102.164 77.879 101.342 77.6789C100.935 77.5796 100.598 77.5182 100.369 77.4823C100.254 77.4643 100.167 77.4528 100.112 77.446C100.109 77.4457 100.106 77.4453 100.103 77.445H81.3026V0.382812Z" fill="#FF543E"/>
<path fill-rule="evenodd" clip-rule="evenodd" d="M59.3099 53.877H19.081V50.877H72.078L72.4256 53.8361L31.8491 63.5035H72.078L72.4256 66.4626L31.8491 76.13H72.078V79.13H19.081L18.7334 76.1708L59.3099 66.5035H19.081L18.7334 63.5443L59.3099 53.877Z" fill="#FF543E"/>
<path fill-rule="evenodd" clip-rule="evenodd" d="M64.0494 29.0547C60.5459 29.0547 57.707 31.8933 57.707 35.3932C57.707 38.8932 60.5459 41.7318 64.0494 41.7318C67.553 41.7318 70.3919 38.8932 70.3919 35.3932C70.3919 31.8932 67.553 29.0547 64.0494 29.0547ZM54.707 35.3932C54.707 30.235 58.8905 26.0547 64.0494 26.0547C69.2084 26.0547 73.3919 30.235 73.3919 35.3932C73.3919 40.5515 69.2084 44.7318 64.0494 44.7318C58.8905 44.7318 54.707 40.5515 54.707 35.3932Z" fill="#FF543E"/>
</svg>
