<svg width="160" height="160" viewBox="0 0 160 160" fill="none" xmlns="http://www.w3.org/2000/svg">
<path d="M98 38.9944C98 30.185 90.8338 23.0186 82.0165 23.0044C82.0066 23.0044 81.9988 23 81.99 23H24.0032C23.9933 23 23.9856 23.0044 23.9767 23.0044C15.1628 23.0221 8 30.1873 8 38.9944C8 38.9978 8.00111 39.0022 8.00111 39.0055L8 101.847C8 102.724 8.70988 103.432 9.58564 103.432H22.4223V135.547C22.4223 136.424 23.1321 137.132 24.0079 137.132H81.989C82.8658 137.132 83.5746 136.424 83.5746 135.547L83.5735 54.9229C91.6619 54.1257 97.999 47.2866 97.999 38.9926L98 38.9944ZM11.1714 100.262V39.0029C11.1714 38.9996 11.1703 38.9963 11.1703 38.9919C11.1714 31.925 16.9313 26.1753 24.01 26.1753C31.0802 26.1753 36.831 31.9262 36.831 38.9964C36.831 39.8323 36.7183 40.6661 36.5568 41.4909H24.0101C23.1354 41.4909 22.4244 42.2008 22.4244 43.0766V53.393C22.4244 53.403 22.42 53.4107 22.42 53.4196C22.42 53.4295 22.4244 53.4373 22.4244 53.4461V100.263L11.1714 100.262ZM25.5923 51.7042V44.6629H35.5031C33.6024 48.4988 29.8539 51.1613 25.5923 51.7042ZM25.5923 133.964V55.0077H80.403V133.964H25.5923ZM81.9882 51.8373H33.5154C36.2488 49.8093 38.3452 46.9246 39.3526 43.5199C39.7827 42.0382 39.9995 40.5156 39.9995 38.9973C39.9995 33.7449 37.443 29.0898 33.5186 26.1728H81.9687C81.9753 26.1728 81.9809 26.1761 81.9875 26.1761C89.0665 26.1761 94.8272 31.927 94.8272 38.9972C94.8272 46.0773 89.0662 51.8369 81.9875 51.8369L81.9882 51.8373Z" fill="#FF543E"/>
<path d="M44.7859 61.8212L36.8566 69.7505L34.1851 67.0791C33.5648 66.4588 32.563 66.4588 31.9438 67.0791C31.3234 67.6994 31.3234 68.7012 31.9438 69.3204L35.7355 73.1121C36.0451 73.4217 36.4509 73.5765 36.8567 73.5765C37.2625 73.5765 37.6683 73.4217 37.9779 73.1121L47.0273 64.0627C47.6476 63.4424 47.6476 62.4406 47.0273 61.8213C46.407 61.201 45.4052 61.2032 44.786 61.8213L44.7859 61.8212Z" fill="#FF543E"/>
<path d="M44.7859 82.038L36.8566 89.9673L34.1851 87.2981C33.5648 86.6778 32.5619 86.6778 31.9438 87.2981C31.3234 87.9184 31.3234 88.9202 31.9438 89.5394L35.7355 93.33C36.0451 93.6396 36.4509 93.7944 36.8567 93.7944C37.2625 93.7944 37.6683 93.6396 37.9779 93.33L47.0273 84.2806C47.6476 83.6603 47.6476 82.6584 47.0273 82.0392C46.407 81.4178 45.4052 81.42 44.786 82.0381L44.7859 82.038Z" fill="#FF543E"/>
<path d="M73.0587 70.4094H53.0007C52.1261 70.4094 51.415 71.1193 51.415 71.9951C51.415 72.8697 52.1249 73.5807 53.0007 73.5807H73.0598C73.9367 73.5807 74.6455 72.8708 74.6455 71.9951C74.6443 71.1193 73.9356 70.4094 73.0587 70.4094H73.0587Z" fill="#FF543E"/>
<path d="M73.0587 90.6235H53.0007C52.1261 90.6235 51.415 91.3323 51.415 92.2092C51.415 93.086 52.1249 93.7948 53.0007 93.7948H73.0598C73.9367 93.7948 74.6455 93.086 74.6455 92.2092C74.6443 91.3323 73.9356 90.6235 73.0587 90.6235H73.0587Z" fill="#FF543E"/>
<path d="M44.7859 100.726L36.8566 108.655L34.1851 105.984C33.5648 105.364 32.563 105.364 31.9438 105.984C31.3234 106.604 31.3234 107.606 31.9438 108.225L35.7355 112.017C36.0451 112.327 36.4509 112.481 36.8567 112.481C37.2625 112.481 37.6683 112.327 37.9779 112.017L47.0273 102.968C47.6476 102.347 47.6476 101.345 47.0273 100.726C46.407 100.107 45.4052 100.108 44.786 100.726L44.7859 100.726Z" fill="#FF543E"/>
<path d="M73.0587 109.312H53.0007C52.1261 109.312 51.415 110.02 51.415 110.897C51.415 111.774 52.1249 112.483 53.0007 112.483H73.0598C73.9367 112.483 74.6455 111.774 74.6455 110.897C74.6443 110.02 73.9356 109.312 73.0587 109.312H73.0587Z" fill="#FF543E"/>
</svg>
