<svg width="160" height="160" viewBox="0 0 160 160" fill="none" xmlns="http://www.w3.org/2000/svg">
<path fill-rule="evenodd" clip-rule="evenodd" d="M117.424 72.9922H93.6205V69.9922H117.424V72.9922ZM66.3535 85.1519V82.1519H117.424V85.1519H66.3535ZM117.424 94.3117V97.3117H66.3535V94.3117H117.424Z" fill="#FF543E"/>
<path fill-rule="evenodd" clip-rule="evenodd" d="M68.7856 46.2402H42.0342V43.2402H68.7856V46.2402ZM68.7856 57.184H42.0342V54.184H68.7856V57.184Z" fill="#FF543E"/>
<path fill-rule="evenodd" clip-rule="evenodd" d="M50.4917 28C44.4874 28 38.7305 30.373 34.4871 34.5944C30.244 38.8156 27.8617 44.539 27.8617 50.5053V60.4832L15.2693 73.0105H30.7563V76.0105H8L24.8617 59.236V50.5053C24.8617 43.7383 27.5639 37.2501 32.3713 32.4676C37.1785 27.6853 43.6967 25 50.4917 25H60.0581C66.8531 25 73.3714 27.6853 78.1785 32.4676C82.9859 37.2501 85.6881 43.7383 85.6881 50.5053C85.6881 53.8558 85.0248 57.1732 83.7361 60.2683C82.4475 63.3633 80.5589 66.1749 78.1785 68.543C75.7982 70.911 72.9728 72.789 69.8638 74.0701C66.7548 75.3512 63.4228 76.0105 60.0581 76.0105H41.9272V87.1056C41.9272 94.0535 44.7015 100.718 49.6424 105.634C54.5835 110.549 61.2867 113.312 68.2779 113.312H69.7779V127.466L84.0789 113.239H115.109C118.571 113.239 121.999 112.56 125.196 111.243C128.394 109.925 131.299 107.993 133.746 105.559C136.193 103.125 138.133 100.235 139.456 97.0558C140.78 93.8764 141.46 90.4691 141.46 87.0281V71.7738C141.46 71.7736 141.46 71.774 141.46 71.7738C141.457 64.828 138.681 58.1655 133.741 53.2527C128.8 48.3395 122.098 45.5781 115.109 45.5781H92.8112V42.5781H115.109C122.889 42.5781 130.352 45.6516 135.856 51.1254C141.361 56.5995 144.457 64.026 144.46 71.7725V87.0281C144.46 90.8648 143.701 94.6641 142.226 98.2086C140.75 101.753 138.588 104.973 135.862 107.686C133.136 110.398 129.9 112.549 126.34 114.016C122.779 115.484 118.963 116.239 115.109 116.239H85.317L66.7779 134.682V116.274C59.5422 115.906 52.6767 112.884 47.5266 107.761C42.0214 102.284 38.9272 94.8542 38.9272 87.1056V73.0105H60.0581C63.031 73.0105 65.9746 72.428 68.7208 71.2964C71.4669 70.1648 73.9617 68.5063 76.0627 66.4162C78.1637 64.326 79.8299 61.845 80.9666 59.1151C82.1032 56.3852 82.6881 53.4596 82.6881 50.5053C82.6881 44.539 80.3058 38.8156 76.0627 34.5944C71.8193 30.373 66.0625 28 60.0581 28H50.4917Z" fill="#FF543E"/>
</svg>
