<svg width="160" height="160" viewBox="0 0 160 160" fill="none" xmlns="http://www.w3.org/2000/svg">
<path fill-rule="evenodd" clip-rule="evenodd" d="M88.3241 31H105.299C108.591 31 111.904 31.9614 114.408 34.2712C116.937 36.6036 118.461 40.1447 118.461 44.9326V101.92H115.461V44.9326C115.461 40.8071 114.169 38.1319 112.374 36.4764C110.555 34.7983 108.037 34 105.299 34H91.3241V105.062H107.275L107.343 105.068L107.206 106.562C107.343 105.068 107.344 105.068 107.345 105.069L107.347 105.069L107.351 105.069L107.361 105.07L107.393 105.073C107.419 105.076 107.454 105.08 107.497 105.085C107.584 105.096 107.704 105.112 107.855 105.136C108.154 105.183 108.574 105.26 109.073 105.381C110.066 105.623 111.408 106.049 112.765 106.792C115.523 108.3 118.384 111.161 118.384 116.259C118.384 121.387 115.317 124.395 112.449 126.043C111.021 126.863 109.607 127.374 108.558 127.679C108.031 127.833 107.589 127.937 107.273 128.003C107.115 128.036 106.989 128.06 106.899 128.076C106.854 128.084 106.818 128.09 106.791 128.095L106.759 128.1L106.748 128.102L106.744 128.102L106.743 128.102C106.742 128.102 106.742 128.103 106.519 126.619L106.742 128.103L106.631 128.119H8V45.865H79.5724V48.865H11V125.119H106.393C106.455 125.108 106.544 125.091 106.656 125.067C106.907 125.014 107.274 124.928 107.719 124.799C108.614 124.538 109.791 124.11 110.954 123.442C113.268 122.112 115.384 119.94 115.384 116.259C115.384 112.549 113.406 110.562 111.325 109.424C110.263 108.843 109.185 108.496 108.363 108.296C107.956 108.197 107.619 108.135 107.39 108.099C107.275 108.081 107.188 108.07 107.133 108.063C107.13 108.063 107.127 108.062 107.124 108.062H88.3241V31Z" fill="#FF543E"/>
<path fill-rule="evenodd" clip-rule="evenodd" d="M66.3314 84.4942H26.1025V81.4942H79.0995L79.4471 84.4533L38.8706 94.1207H79.0995L79.4471 97.0798L38.8706 106.747H79.0995V109.747H26.1025L25.7549 106.788L66.3314 97.1207H26.1025L25.7549 94.1615L66.3314 84.4942Z" fill="#FF543E"/>
<path fill-rule="evenodd" clip-rule="evenodd" d="M71.0709 59.6719C67.5674 59.6719 64.7285 62.5105 64.7285 66.0104C64.7285 69.5104 67.5674 72.349 71.0709 72.349C74.5745 72.349 77.4134 69.5104 77.4134 66.0104C77.4134 62.5104 74.5745 59.6719 71.0709 59.6719ZM61.7285 66.0104C61.7285 60.8522 65.912 56.6719 71.0709 56.6719C76.2299 56.6719 80.4134 60.8522 80.4134 66.0104C80.4134 71.1687 76.2299 75.349 71.0709 75.349C65.912 75.349 61.7285 71.1687 61.7285 66.0104Z" fill="#FF543E"/>
</svg>
