<svg width="160" height="160" viewBox="0 0 160 160" fill="none" xmlns="http://www.w3.org/2000/svg">
<path d="M66.3428 40.8165H56.6715C55.9086 40.8165 55.2898 40.1978 55.2898 39.4349C55.2898 38.672 55.9086 38.0532 56.6715 38.0532H66.3428C67.1057 38.0532 67.7245 38.6719 67.7245 39.4349C67.7245 40.1982 67.1058 40.8165 66.3428 40.8165Z" fill="#FF543E"/>
<path d="M73.2501 46.343H56.6705C55.9076 46.343 55.2888 45.7243 55.2888 44.9613C55.2888 44.1985 55.9076 43.5797 56.6705 43.5797H73.2501C74.0129 43.5797 74.6318 44.1984 74.6318 44.9613C74.6318 45.7247 74.013 46.343 73.2501 46.343Z" fill="#FF543E"/>
<path d="M73.2501 51.8696H56.6705C55.9076 51.8696 55.2888 51.2508 55.2888 50.4879C55.2888 49.725 55.9076 49.1062 56.6705 49.1062H73.2501C74.0129 49.1062 74.6318 49.725 74.6318 50.4879C74.6318 51.2512 74.013 51.8696 73.2501 51.8696Z" fill="#FF543E"/>
<path d="M64.9609 62.9226H49.7633C48.5366 62.9226 47.9169 61.4339 48.7863 60.5639L51.9788 57.3715C48.7986 54.0427 47 49.5963 47 44.9615C47 35.0577 55.0573 27 64.9615 27C74.8656 27 82.923 35.0573 82.923 44.9615C82.923 54.8653 74.8656 62.923 64.9615 62.923L64.9609 62.9226ZM53.0987 60.1593H64.9609C73.341 60.1593 80.1585 53.3415 80.1585 44.9617C80.1585 36.5817 73.3406 29.7641 64.9609 29.7641C56.5812 29.7641 49.7633 36.582 49.7633 44.9617C49.7633 49.2971 51.6236 53.4381 54.8674 56.3227C55.4615 56.8507 55.4877 57.771 54.9266 58.332L53.0987 60.1593Z" fill="#FF543E"/>
<path d="M102.265 68.6191H87.067C78.9835 68.6191 74.535 68.5335 72.4141 60.7423C72.2137 60.0061 72.648 59.2467 73.3847 59.0463C74.1209 58.846 74.8803 59.2802 75.0806 60.0164C76.8748 66.6083 80.2273 65.8561 87.0669 65.8561H98.9291L97.1014 64.0284C96.5404 63.4673 96.5655 62.5475 97.1606 62.0191C100.405 59.135 102.265 54.994 102.265 50.6581C102.265 42.278 95.4468 35.4605 87.0671 35.4605C85.1333 35.4605 83.2494 35.8187 81.4681 36.5249C80.759 36.8061 79.9557 36.4592 79.6745 35.7497C79.3932 35.0401 79.7401 34.2372 80.4497 33.956C82.5567 33.1206 84.7831 32.6968 87.0672 32.6968C96.971 32.6968 105.029 40.7541 105.029 50.6583C105.029 55.2931 103.23 59.7396 100.05 63.0682L103.242 66.2607C103.638 66.656 103.756 67.2501 103.542 67.7662C103.328 68.2833 102.824 68.6199 102.265 68.6199L102.265 68.6191Z" fill="#FF543E"/>
<path fill-rule="evenodd" clip-rule="evenodd" d="M83.1617 132.344V124.828C83.1617 122.938 84.6633 121.31 86.7315 120.961L91.2916 120.188L100.36 129.524C100.657 129.83 101.065 130.003 101.491 130.003C101.915 130.003 102.323 129.831 102.621 129.524L111.756 120.12L115 120.188C117.919 120.09 119.5 122.434 119.5 124.828V132.343C119.5 132.343 119.816 134.934 121.3 134.934C122.784 134.934 123 133.344 123 133.344V124.827C123 122.222 121 117.722 117 117.521L111.402 116.914C110.085 116.691 109.128 115.67 109.127 114.452L109.112 113.744C111.497 111.354 113.04 108.154 113.33 104.662C113.33 104.657 113.328 104.652 113.328 104.646C113.328 104.64 113.331 104.636 113.333 104.63L113.731 98.3958C116.025 94.8147 116.762 91.5724 115.894 88.7582C115.131 86.2907 113.16 84.2136 110.021 82.5629C110.152 82.496 110.295 82.4281 110.452 82.3542C111.033 82.0866 111.394 81.4934 111.372 80.8523C111.348 80.2112 110.945 79.647 110.348 79.4203C103.936 76.9956 95.7745 77.3002 91.6898 83.2999C89.5303 84.1847 87.9592 85.8025 87.2318 87.9067C86.2007 90.8855 86.9381 94.5895 89.2762 98.3751L89.6543 104.658C89.9451 108.152 91.4883 111.352 93.873 113.741L93.8551 114.485C93.8551 115.667 92.8984 116.688 91.5815 116.91L86.2066 117.822C82.6102 118.431 80 121.377 80 124.827V133.343C80 134.223 80.7086 134.934 81.5809 134.934C81.5846 134.934 81.5883 134.934 81.5919 134.934C82.4641 134.931 83.1617 133.22 83.1617 132.344ZM94.5794 119.024L101.489 126.137L108.416 119.007C107.329 118.256 106.551 117.195 106.197 115.97C105.453 116.407 104.68 116.804 103.853 117.104C103.093 117.381 102.298 117.521 101.491 117.521C100.683 117.521 99.8868 117.381 99.1276 117.104C98.3019 116.803 97.5308 116.408 96.7895 115.973C96.4372 117.204 95.6542 118.275 94.5794 119.024ZM93.2336 86.1149C91.7241 86.6273 90.6801 87.6069 90.2157 88.9531C89.7969 90.1633 89.8375 91.6113 90.3179 93.2001C90.8409 92.1565 91.5524 91.3567 92.4595 90.7874C95.4635 88.9011 99.7677 90.3111 103.186 91.7511C106.027 92.8416 108.483 92.6748 110.712 92.3233C111.426 92.1905 112.146 92.3812 112.701 92.8725C112.744 92.9105 112.784 92.9504 112.824 92.9904C113.155 91.7731 113.173 90.6737 112.873 89.702C112.239 87.6489 110.122 85.8912 106.58 84.4802C105.849 84.1866 105.441 83.3997 105.625 82.6297C105.718 82.2383 105.897 81.8698 106.169 81.5163C105.052 81.2936 103.917 81.1727 102.804 81.1727C99.2725 81.1727 95.9528 82.3911 94.0732 85.4448C93.8787 85.7584 93.5829 85.9961 93.2336 86.1149ZM94.1307 93.487C93.1353 94.112 92.5597 95.611 92.4129 97.9268L92.806 104.433C93.1691 108.798 96.073 112.611 100.202 114.113C100.615 114.265 101.05 114.341 101.491 114.341C101.931 114.341 102.365 114.264 102.779 114.113C106.906 112.611 109.81 108.799 110.177 104.399L110.599 97.796V97.794C110.667 96.6136 110.645 95.9395 110.596 95.5561C108.155 95.8916 105.297 95.9695 102.008 94.7053C98.0389 93.0316 95.4774 92.6421 94.1307 93.487Z" fill="#FF543E"/>
<path d="M121.3 134.934C119.816 134.934 119.5 132.343 119.5 132.343L83.1617 132.344C83.1617 133.22 82.4641 134.931 81.5919 134.934H121.3Z" fill="#FF543E"/>
<path d="M39.3458 91.2985L37.5771 91.3444L37.5999 92.2286C37.7279 97.1577 38.4908 100.905 40.0316 103.51C41.3813 105.791 43.3555 107.586 45.3377 108.83C47.3205 110.074 49.2761 110.793 50.8545 110.793H51.739V109.024H50.8545C49.873 109.024 48.0567 108.448 46.2783 107.332C44.4999 106.216 42.7236 104.586 41.5542 102.61C40.2682 100.436 39.4919 96.9479 39.3685 92.1831L39.3458 91.2985Z" fill="#FF543E" stroke="#FF543E" stroke-width="0.947931"/>
<path d="M63.2244 92.7716L63.1739 93.6545C62.9443 97.6734 62.1983 100.666 61.0488 102.609C59.8795 104.586 58.1033 106.216 56.3248 107.332C54.5464 108.447 52.7301 109.024 51.7486 109.024H50.864V110.793H51.7486C53.3269 110.793 55.2826 110.074 57.2653 108.83C59.2476 107.586 61.2218 105.791 62.5714 103.51C63.9492 101.181 64.7011 97.9378 64.9404 93.7555L64.9909 92.8726L63.2244 92.7716Z" fill="#FF543E" stroke="#FF543E" stroke-width="0.947931"/>
<path d="M44.5 108.5V111.119C44.5 112.514 43.5395 113.724 42.1817 114.041L34.9094 115.738C31.7413 116.477 29.5 119.301 29.5 122.555V126H73V122.239C73 118.902 70.6448 116.029 67.3728 115.375L60.4117 113.982C59.0094 113.702 58 112.471 58 111.041V108.5" stroke="#FF543E" stroke-width="3" stroke-linecap="round" stroke-linejoin="round"/>
<path d="M49.9923 71.0018C48.5138 70.9812 47.152 71.1383 46.0071 71.4668C43.5387 72.1753 41.7738 73.631 40.9681 75.6833C39.5966 75.6239 38.3965 75.8783 37.4324 76.4967C36.2997 77.2233 35.5373 78.3778 35.0559 79.7637C34.0925 82.5349 34.1127 86.3297 34.4657 90.8262C35.1548 99.604 33.5824 104.443 29.9608 108.517L29.3113 109.248L30.1032 109.821C32.1533 111.305 33.882 112.207 35.4358 112.455L42.3094 113.595L42.5887 111.848L35.7151 110.708C34.8015 110.562 33.4986 109.962 31.9334 108.922C35.398 104.629 36.8992 99.218 36.2299 90.6876C35.8832 86.272 35.9388 82.6107 36.7269 80.3437C37.1208 79.2101 37.6633 78.4495 38.3873 77.9853C39.1114 77.5211 40.0769 77.3075 41.4758 77.479L42.2369 77.5725L42.4374 76.8324C42.9353 74.9946 44.1632 73.8358 46.4955 73.1665C48.3371 72.6379 51.2987 72.6202 54.2712 73.3228C57.2437 74.0254 60.2319 75.4314 62.2937 77.5775C65.4335 80.8454 66.8198 83.5075 66.214 90.3729C65.893 94.011 66.3029 98.385 67.2868 102.181C68.1335 105.445 69.3297 108.314 71.1637 109.883C70.1878 110.763 69.0935 111.311 67.8163 111.536L59.9452 111.848L65.2527 113.432L68.1238 113.279C70.0988 112.93 71.8237 111.928 73.197 110.355L73.9215 109.525L72.9548 108.997C71.5062 108.206 69.93 105.325 68.9999 101.737C68.0694 98.1488 67.6781 93.9078 67.9763 90.5286C68.6086 83.3599 66.89 79.8085 63.5691 76.3529C61.1884 73.8749 57.9024 72.364 54.6784 71.6016C53.0664 71.2208 51.4708 71.0224 49.9923 71.0018Z" fill="#FF543E" stroke="#FF543E" stroke-width="0.947931"/>
<path d="M50.8785 78.5703C50.1882 78.6171 49.5193 78.7936 48.8938 79.1036C47.8053 79.6428 46.8702 80.5678 46.0446 81.7847C43.4693 81.1671 41.2532 81.5467 39.789 83.1018C38.2049 84.785 37.5767 87.5183 37.6054 91.2343L37.6122 92.1189L39.3813 92.1054L39.3745 91.2209C39.3476 87.7227 40.0148 85.443 41.0775 84.3145C42.1399 83.1856 43.6781 82.8967 46.1786 83.6401L46.834 83.8352L47.1878 83.2497C47.9801 81.9371 48.8251 81.1116 49.6789 80.6886C50.5328 80.2657 51.4169 80.1967 52.499 80.5126C53.667 80.8533 54.4134 81.4755 55.0128 82.3322C55.6118 83.189 56.0309 84.2951 56.3821 85.491C57.0856 87.8819 57.4204 90.6429 59.238 92.3569C60.4721 93.5207 62.0391 94.2541 63.8491 94.5485L64.7219 94.6904L65.0062 92.9445L64.133 92.8022C62.6154 92.5553 61.4182 91.9808 60.4519 91.0697C59.3193 90.0019 58.8269 87.5327 58.0796 84.9919C57.706 83.7211 57.2435 82.4356 56.4626 81.319C55.6812 80.2019 54.5485 79.268 52.9947 78.8143C52.2811 78.6062 51.5688 78.5237 50.8784 78.5704L50.8785 78.5703Z" fill="#FF543E" stroke="#FF543E" stroke-width="0.947931"/>
<rect x="9.5" y="15.5" width="129" height="129" rx="14.5" stroke="#FF543E" stroke-width="3"/>
<path d="M41.5 113.5L46.8476 117.44C49.3169 119.26 52.6831 119.26 55.1524 117.44L60.5 113.5" stroke="#FF543E" stroke-width="3"/>
</svg>
