<svg width="160" height="160" viewBox="0 0 160 160" fill="none" xmlns="http://www.w3.org/2000/svg">
<circle cx="73" cy="80" r="26.5" stroke="#FF543E" stroke-width="3"/>
<path d="M85.75 79.201C86.75 79.7783 86.75 81.2217 85.75 81.799L67 92.6244C66 93.2017 64.75 92.48 64.75 91.3253L64.75 69.6747C64.75 68.52 66 67.7983 67 68.3756L85.75 79.201Z" stroke="#FF543E" stroke-width="3" stroke-linejoin="round"/>
<path d="M74 112.308C74 111.479 73.3284 110.808 72.5 110.808C71.6716 110.808 71 111.479 71 112.308H74ZM71 49.1923C71 50.0207 71.6716 50.6923 72.5 50.6923C73.3284 50.6923 74 50.0207 74 49.1923H71ZM6.5 28V132H9.5V28H6.5ZM16 141.5H64.5V138.5H16V141.5ZM74 132V112.308H71V132H74ZM74 49.1923V28H71V49.1923H74ZM64.5 18.5H16V21.5H64.5V18.5ZM64.5 141.5C69.7467 141.5 74 137.247 74 132H71C71 135.59 68.0899 138.5 64.5 138.5V141.5ZM6.5 132C6.5 137.247 10.7533 141.5 16 141.5V138.5C12.4101 138.5 9.5 135.59 9.5 132H6.5ZM74 28C74 22.7533 69.7467 18.5 64.5 18.5V21.5C68.0899 21.5 71 24.4101 71 28H74ZM9.5 28C9.5 24.4101 12.4101 21.5 16 21.5V18.5C10.7533 18.5 6.5 22.7533 6.5 28H9.5Z" fill="#FF543E"/>
<line x1="31.5" y1="132.5" x2="50.5" y2="132.5" stroke="#FF543E" stroke-width="3" stroke-linecap="round"/>
</svg>
