<svg width="160" height="160" viewBox="0 0 160 160" fill="none" xmlns="http://www.w3.org/2000/svg">
<rect x="5.5" y="30.5" width="148.763" height="86.2634" stroke="#FF543E" stroke-width="3"/>
<rect x="46.5" y="117.177" width="67.8781" height="12.0034" stroke="#FF543E" stroke-width="3"/>
<line x1="26" y1="129.18" x2="135.68" y2="129.18" stroke="#FF543E" stroke-width="3"/>
<path d="M25.0189 104.128V95.6124C25.0189 93.723 26.5205 92.0952 28.5887 91.7457L33.1488 90.9728L42.2174 100.309C42.5141 100.615 42.922 100.787 43.3477 100.787C43.7725 100.787 44.1804 100.616 44.4781 100.309L53.6132 90.9051L55.9385 91.0708C57.0609 91.1507 58.0414 91.8867 58.4374 92.9462L59.3275 95.3309C59.5002 95.7923 59.8734 96.1468 60.3408 96.2916C60.8072 96.4414 61.3174 96.3595 61.7163 96.0739L72.9624 88.133L76.2802 91.9997L64.2927 101.975C63.6189 102.535 63.5256 103.537 64.0823 104.215C64.3949 104.593 64.8455 104.791 65.301 104.791C65.6563 104.791 66.0126 104.672 66.3083 104.427L79.5412 93.4179C79.5521 93.4079 79.557 93.396 79.566 93.386C79.5769 93.376 79.5928 93.372 79.6037 93.362L81.4277 91.6693C83.1883 90.0356 83.5029 87.4162 82.2951 85.4129L92.6193 76.5223C93.2812 75.9511 93.3606 74.9475 92.792 74.2794C92.2233 73.6114 91.2249 73.5365 90.563 74.1057L80.1139 83.1021C78.5647 82.1584 76.5629 82.0985 74.9524 83.0841L72.4029 84.645C72.389 84.655 72.3811 84.67 72.3662 84.6799C72.3503 84.6909 72.3315 84.6909 72.3176 84.7019L61.5717 92.2895L61.399 91.8261C60.5704 89.6072 58.516 88.0643 56.1631 87.8976L53.2593 87.6989C51.9423 87.4762 50.9856 86.4546 50.9846 85.2363L50.9688 84.5283C53.3545 82.1386 54.8968 78.9391 55.1874 75.447C55.1874 75.442 55.1854 75.437 55.1854 75.431C55.1854 75.425 55.1884 75.421 55.1904 75.415L55.5883 69.1806C57.8818 65.5995 58.6192 62.3572 57.7508 59.543C56.9886 57.0754 55.0176 54.9984 51.8777 53.3477C52.0087 53.2808 52.1526 53.2129 52.3094 53.139C52.89 52.8713 53.2512 52.2782 53.2294 51.637C53.2056 50.9959 52.8027 50.4317 52.2052 50.205C45.7933 47.7804 37.6317 48.085 33.547 54.0847C31.3875 54.9695 29.8164 56.5872 29.089 58.6914C28.0579 61.6702 28.7953 65.3743 31.1334 69.1599L31.5115 75.4431C31.8023 78.9363 33.3455 82.137 35.7301 84.5255L35.7123 85.2695C35.7123 86.4518 34.7556 87.4724 33.4387 87.6951L28.0638 88.6068C24.4674 89.216 21.8572 92.1618 21.8572 95.612V104.128C21.8572 105.008 22.5658 105.719 23.4381 105.719C24.3154 105.722 25.019 105.009 25.019 104.129L25.0189 104.128ZM76.5927 85.8009C77.3499 85.3346 78.3503 85.5033 78.9179 86.1904L78.9318 86.2084L79.4459 86.8305C80.0612 87.5745 79.9877 88.6709 79.2811 89.326L78.6569 89.9052L75.6379 86.385L76.5927 85.8009ZM43.3467 96.9215L36.4365 89.8084C37.5113 89.0595 38.2943 87.989 38.6466 86.7576C39.388 87.193 40.1591 87.5874 40.9848 87.889C41.744 88.1656 42.5399 88.3054 43.3477 88.3054C44.1555 88.3054 44.9505 88.1656 45.7106 87.889C46.5373 87.5884 47.3104 87.192 48.0537 86.7546C48.408 87.9799 49.1861 89.0404 50.2728 89.7914L43.3467 96.9215ZM32.0728 59.7378C32.5373 58.3917 33.5813 57.4121 35.0908 56.8997C35.4401 56.7808 35.7359 56.5432 35.9304 56.2296C37.81 53.1759 41.1297 51.9575 44.6616 51.9575C45.7741 51.9575 46.9094 52.0783 48.0258 52.301C47.7539 52.6545 47.5753 53.023 47.482 53.4145C47.2984 54.1844 47.7063 54.9713 48.4367 55.2649C51.9795 56.676 54.0963 58.4337 54.7297 60.4868C55.0304 61.4584 55.0125 62.5579 54.6811 63.7751C54.6414 63.7352 54.6007 63.6952 54.558 63.6573C54.0033 63.166 53.2828 62.9752 52.5692 63.1081C50.3403 63.4596 47.8841 63.6263 45.0428 62.5359C41.6249 61.0958 37.3207 59.6859 34.3167 61.5722C33.4096 62.1414 32.6981 62.9413 32.175 63.9849C31.6947 62.3961 31.654 60.948 32.0728 59.7378L32.0728 59.7378ZM34.27 68.7115C34.4169 66.3957 34.9925 64.8968 35.9879 64.2717C37.3346 63.4269 39.8961 63.8164 43.8647 65.49C47.1545 66.7543 50.0127 66.6764 52.4531 66.3408C52.5018 66.7243 52.5246 67.3984 52.4561 68.5787V68.5807L52.0343 75.1836C51.6671 79.5835 48.7633 83.3962 44.6359 84.8981C44.2221 85.0489 43.7884 85.1258 43.3478 85.1258C42.9071 85.1258 42.4725 85.0499 42.0596 84.8981C37.9301 83.3962 35.0263 79.5825 34.6632 75.2176L34.27 68.7115Z" fill="#FF543E"/>
<path d="M93.9398 51.1816H138.537C139.411 51.1816 140.118 50.4686 140.118 49.5908C140.118 48.713 139.411 48 138.537 48H93.9398C93.0655 48 92.3589 48.713 92.3589 49.5908C92.3589 50.4686 93.0655 51.1816 93.9398 51.1816Z" fill="#FF543E"/>
<path d="M93.9398 63.9077H138.537C139.411 63.9077 140.118 63.1947 140.118 62.3169C140.118 61.4391 139.411 60.7261 138.537 60.7261H93.9398C93.0655 60.7261 92.3589 61.4391 92.3589 62.3169C92.3589 63.1947 93.0655 63.9077 93.9398 63.9077Z" fill="#FF543E"/>
<path d="M138.535 73.4509H103.424C102.549 73.4509 101.843 74.164 101.843 75.0417C101.843 75.9195 102.549 76.6325 103.424 76.6325H138.535C139.409 76.6325 140.115 75.9195 140.115 75.0417C140.114 74.164 139.408 73.4509 138.535 73.4509Z" fill="#FF543E"/>
<path d="M138.534 86.177H93.9371C93.0628 86.177 92.3562 86.89 92.3562 87.7678C92.3562 88.6456 93.0628 89.3586 93.9371 89.3586H138.534C139.409 89.3586 140.115 88.6456 140.115 87.7678C140.114 86.89 139.408 86.177 138.534 86.177Z" fill="#FF543E"/>
</svg>
